<?xml version="1.0" encoding="utf-8"?>
<!-- Generator: Adobe Illustrator 18.0.0, SVG Export Plug-In . SVG Version: 6.00 Build 0)  -->
<!DOCTYPE svg PUBLIC "-//W3C//DTD SVG 1.1//EN" "http://www.w3.org/Graphics/SVG/1.1/DTD/svg11.dtd">
<svg version="1.1" id="Layer_1" xmlns="http://www.w3.org/2000/svg" xmlns:xlink="http://www.w3.org/1999/xlink" x="0px" y="0px"
	 viewBox="0 0 1000 1000" enable-background="new 0 0 1000 1000" xml:space="preserve">
<g>
	<path fill="none" d="M9,76.5c0.2-0.2,0.4-0.4,0.6-0.5C9.4,76.1,9.2,76.3,9,76.5z"/>
	<path fill="none" d="M17.9,90.4c0.2,0.1,0.5,0.3,0.7,0.3C18.3,90.7,18.1,90.5,17.9,90.4C17.9,90.4,17.9,90.4,17.9,90.4z"/>
	<path fill="none" d="M16.2,72.6c-0.1,0.3-0.2,0.6-0.4,0.8C16,73.1,16.1,72.8,16.2,72.6C16.2,72.6,16.2,72.6,16.2,72.6z"/>
	<path fill="none" d="M12.6,74.6c0.9,0,1.8,0.5,2.9,1.6l0,0C14.4,75,13.4,74.6,12.6,74.6z"/>
	<path fill="none" d="M11.9,74.6c0.2,0,0.4-0.1,0.7-0.1C12.4,74.6,12.1,74.6,11.9,74.6z"/>
	<path fill="none" d="M52.5-83.8c0-0.3-0.1-0.5-0.1-0.7C52.4-84.4,52.5-84.1,52.5-83.8L52.5-83.8z"/>
	<path fill="none" d="M56.5-83.2c-1.3,0-2.6-0.1-3.9-0.6l0,0C53.8-83.3,55.1-83.2,56.5-83.2z"/>
	<path fill="none" d="M51.8-85.4c0.2,0.1,0.3,0.3,0.4,0.5C52.1-85.1,52-85.3,51.8-85.4z"/>
	<path fill="none" d="M74.9-78.6c0.3,0.1,0.5,0.2,0.8,0.4C75.4-78.3,75.2-78.5,74.9-78.6L74.9-78.6z"/>
	<path fill="none" d="M90.1-73.5c0.1-0.1,0.2-0.3,0.3-0.5C90.3-73.8,90.2-73.6,90.1-73.5z"/>
	<path fill="none" d="M85.2-76.2c0.4,0,0.8,0.2,1.1,0.3C86-76.1,85.6-76.2,85.2-76.2z"/>
	<path fill="none" d="M25.3,73.6c-0.5-0.3-1.2-0.4-1.8-0.4l0,0C24.1,73.2,24.9,73.3,25.3,73.6z"/>
	<path fill="none" d="M90.9,53.5c0.4-1.2,1.1-2.3,2.7-2.3c0.6,0,1.2,0.2,1.5,0.5c-0.4-0.3-0.9-0.5-1.5-0.5
		C91.9,51.2,91.3,52.3,90.9,53.5z"/>
	<path fill="none" d="M90.6-75.3c0-0.3,0.1-0.6,0.1-0.9C90.7-75.9,90.6-75.6,90.6-75.3z"/>
	<path fill="none" d="M23.5,73.2c-2.7,1-5.3,2-8,3l0,0C18.2,75.2,20.8,74.2,23.5,73.2L23.5,73.2z"/>
	<path fill="none" d="M90-73.4c-0.4,0.4-1.1,0.3-2.5-0.4l0,0C88.9-73.1,89.6-73.1,90-73.4z"/>
	<path fill="none" d="M87.5-73.8c-0.1-0.5-0.2-0.9-0.4-1.3C87.3-74.8,87.4-74.4,87.5-73.8L87.5-73.8z"/>
	<path fill="none" d="M35.3-95.4c0.3,0.1,0.6,0.2,0.9,0.3C35.9-95.2,35.6-95.3,35.3-95.4z"/>
	<path fill="none" d="M102.3,108.8c-0.6-0.2-0.7-0.9-0.8-1.6h0C101.6,107.9,101.7,108.7,102.3,108.8z"/>
	<path fill="none" d="M35.3-95.4c-1.6-0.3-3.2,0.3-4.8,0.6l0,0C32.1-95.1,33.7-95.7,35.3-95.4z"/>
	<path fill="none" d="M92.3,106.7c-0.6-0.1-1.1-0.3-1.7-0.4C91.2,106.5,91.7,106.6,92.3,106.7z"/>
	<path fill="none" d="M114.1-25.1c-0.3-0.1-0.5-0.2-0.8-0.4C113.6-25.3,113.8-25.2,114.1-25.1C114.1-25.1,114.1-25.1,114.1-25.1z"/>
	<path fill="none" d="M93.1,106.9c2.8,0.4,5.6,0,8.4,0.3l0,0C98.7,106.9,95.9,107.2,93.1,106.9z"/>
	<path fill="none" d="M30.5-94.8L30.5-94.8c0.1-0.4,0.2-0.8,0.4-1.1C30.7-95.6,30.6-95.3,30.5-94.8L30.5-94.8z"/>
	<path fill="none" d="M-101.5,76.4c0.3,0.1,0.6,0.2,0.9,0.3C-101,76.7-101.3,76.6-101.5,76.4z"/>
	<path fill="none" d="M-112.5,88.8c-0.5-1.4-1.1-2.8-1.6-4.3C-113.6,86-113,87.4-112.5,88.8C-112.5,88.8-112.5,88.8-112.5,88.8z"/>
	<path fill="none" d="M-115.3,87.1c0-0.3,0.1-0.7,0.4-1.2C-115.2,86.5-115.3,86.8-115.3,87.1z"/>
	<path fill="#DDB88C" d="M-113,38.1c-0.1,0-0.2,0-0.2,0c0,0.1,0.1,0.2,0.1,0.3C-113.1,38.3-113,38.2-113,38.1z"/>
	<path fill="#DDB88C" d="M124.1,32.1c-1.1-5.6-1.5-10.9-1.5-16.5c0-13.3,0.5-26.6-2.3-39.8c-1.3-6.3-2.9-13-8.7-16.2
		c-4.1-2.2-3.1-3.6-1.4-6.2c4.1-6.3,5.8-13.2,4.9-20.8c-2.4-19-14.7-30-30.7-38c-5.3-2.7-11.2-2.8-16.8-4
		c-11.8-2.6-23.3-6.1-35.6-4.7c-3.5,0.4-6.9,0.8-10.2,1.5c1.1,3,1.8,6.1,2.2,9.4c1-0.8,1.9-1,3.1-0.6c1.5,0.6,0.4,1.7,0.5,2.6
		c0.3,2.2-1.9,0.7-2.3,1.3c-0.3,0.4-0.6,0.7-1,1c0,0.5,0,1,0,1.5c0,0.9,0,1.8-0.1,2.7c0.6,0.2,1,0.6,1,1.4c-0.2,0.8-0.7,1.2-1.2,1.3
		c-0.1,0.8-0.2,1.5-0.3,2.3c2.7-0.2,5.4-0.8,8.1,0.7c1.2,0.6,2.9-0.8,2.9-2c0.1-2-1.5-1-2.5-0.9c-1.5,0.2-2.7,0-2.8-1.9l0,0
		c0,0,0,0,0,0l0,0c0,0,0,0,0,0c-1.9,0.2-2.7-0.4-2.1-2.5c0.3-0.9-0.8-2.2,1.2-2.5c2.9-0.4,5.8-1.4,8.7-1.9c1.2-0.2,3-0.5,3,1.6
		c0,1.9-1.4,2.5-3.2,2.1c-0.9-0.2-1.7-0.5-2.6-0.7c-0.3-0.1-0.7-0.1-1-0.1c-0.3,0-0.6,0-0.9,0.1c-0.4,0.1-0.8,0.3-1.1,0.7
		c-0.1,0.1-0.2,0.3-0.3,0.4c-0.1,0.2-0.3,0.5-0.4,0.8c-0.1,0.3-0.3,0.7-0.4,1.1l0,0l0,0l0,0c0,0,0,0,0,0c0,0,0,0,0,0c0,0,0,0,0,0
		c1.7-0.2,3.2-0.9,4.8-0.6c0.3,0.1,0.6,0.2,0.9,0.3c0.6,0.3,1.3,0.8,1.9,1.5c1.3,1.6,4.4,2.3,6.8,0.5c1-0.7,2.1-2.1,0.4-2.6
		c-3-0.9-2.7-4.3-2.3-5c1.1-1.9,3,0.2,4.6,0.4c1.1,0.2,2.2,0.7,3.5-0.7c-1.3-0.9-4.2-0.7-3-3.8c1.9,1.1,3.7,1.7,5.3,3.1
		c1.8,1.6,3.2-2.5,5.7-0.4c-4.4,2.5-6.8,6.7-11.1,10.7c5.6,0.3,10.4-1.7,16,0.3c-3.4,1.7-6,1-8.5,1.1l0,0c2.8,3.4,6.4,3.5,10.3,2.7
		c1.2-0.3,3-2.6,2.8,1.4c-0.1,1.6,3.7,1.8,5.9,1.9c2.4,0.1,4.5,0,6,2.4c1.3,2.2,4.2,2.4,5.8,1.4c4.1-2.5,6.7,0,9.7,1.8
		c1,0.6,2.7,3.6,3.9-0.4c0.5-1.7,2.1-0.3,2.2,0.7c0.4,2.4,3,4.2,1.6,7c-0.2,0.4,0.2,1.7,0.4,1.7c7.7,1.5,4,7.8,4.9,12
		c1.2,5.6-1.9,10.2-4.2,14.9c-1.3,2.7,0.2,5.4,2,6.7c3.6,2.7,3.4,6.6,4.8,10.1c3.1,7.4,0.8,14.7,1.6,22c0.3,2.8,3.6,3.7,3.2,6.9
		c-1.8,12.5,1.7,25.1,0,37.7c3.5,4.1,0.2,9.8,1.6,12.7c1.9,3.9-2.7,9,2.8,11.3c-1.5,4.1-3.4,8.1-4.4,12.3c-1,4.4-2.1,8.6-4.8,12.3
		c-0.1,0.1-0.1,0.4,0,0.5c5.4,5.6-4.3,8.3-2.8,13.4c0,0.1-2.8,3.1-5.3,1.9c-2.6-1.3-2.9-0.4-2.1,1.9c0,0,0,0,0,0l0,0c0,0,0,0,0,0
		c0.7,0.1,1.5,0.3,2.2,0.4c-0.2,0.4-0.3,1-0.6,1.1c-0.4,0.1-0.6,0.1-0.8,0.1c-0.6-0.2-0.7-0.9-0.8-1.6c0,0,0,0,0,0c0,0,0,0,0,0
		c-2.8-0.3-5.6,0.1-8.4-0.3c-0.3,0-0.6-0.1-0.8-0.1c-0.6-0.1-1.1-0.3-1.7-0.4c-0.8-0.3-1.6-0.7-2.4-1.2c-2.4-1.6-5.8-0.5-8.6-0.6
		c-5-0.2-9.3-2.1-13.7-3.8c-1.7-0.7-2.8,0.5-4.2,1c-1.8,0.6-4.2,1.4-5.1-0.2c-2.4-4.6-5-1.5-7-0.2c-3.4,2.2-6.6,3.8-10.5,1.3
		c-4.1-2.6-7.7,1.3-11.7,0.9c-6.9-0.8-14,3.1-20.5,1.4c-5.9-1.5-11.5-0.2-16.8-0.1c-11.1,0.2-22.2-1.9-33.3,0
		c-6.8,1.2-14.2-1-20.9,0.4c-8.3,1.7-16.8-1.2-24.9,2c-1.4,0.5-3,0.7-4.2,1.5c-2.6,1.9-6.9,3.5-8.5,2.9c-3.2-1.2-6.9-2.9-9.5-5.2
		c-2.4-2.1,0.1-7.1,1.4-8.1c2.6-2.2,2.7-7.1,7.3-7.3c1.2-0.1,2.7-2.6,3.6-0.6c0.7,1.6,2.1,4.3-0.6,6c-1,0.6-1.9,1.3-3,1.7
		c-1,0.4-2.1,0.7-1.3,2c0.6,1,1.5,0.7,2.6,0.3c3.4-1.3,3.4-1.2,5.6,1.5c2.5-5.1,7.6-4,11.8-5.3c0.7-0.2,2.3,0.3,2.3,0.2
		c0.9-4.4,6-3.5,8.2-6.2c1.3-1.6,3-2.5,5.2-2.5c1.2,0,3-0.2,2.8-2c-0.2-2-2-2-3.5-1.9c-3.5,0.4-6.7,2.4-10.4,2.5
		c-3.4,0.1-6.9,1.1-10.3,0.9c-2.6-0.2-2.9,0.2-2.2,2.6c0.6,2.1,0.4,4.2-1.9,5.8c-0.3-0.5-0.7-0.9-0.8-1.3c-0.8-2.4,1.4-5.6-0.9-7.3
		c-1.9-1.3-4.7-1.6-7.1-1.9c-4-0.6-8-1.2-11.3-3.4c-2.1-1.4-3.3,1-5.2,0.8c-1-3.3,6-2.6,3.2-6.3c-1.2-1.6-3.5-2.5-6.2-1.8
		c3.9-3.9,0-10,4.4-13.6l0,0c-3.5-1.2-1.2-3.7-0.7-5.1c1.2-3,1.5-6.2,0.1-8.6c-1.7-3-1.2-5.7,0.7-7c1.2-0.8,1.4-1.7,1.4-2.6
		c-2.4-0.3-4.7-0.7-6.9-1.3c-0.1,1.8-0.5,3.6-1.3,5.3c-1.2,2.5-1.9,5-2,7.6c-0.4,15.2-1.6,30.6,0.8,45.7
		c2.5,15.9,8.5,22.4,26.7,20.8c6.2-0.5,12.5-1.6,18.6-1.5c7.4,0.1,14.9,1.4,22.3,0.8c17.5-1.2,35-1.5,52.5-0.9
		c11.2,0.4,22.2,0.2,33.3-0.3c2.8-0.1,5.5,0.6,8.3,0.3c7.7-0.8,15.5-0.1,23.3-0.9c7-0.8,14.1,0.2,21.3-0.9
		c6.1-0.9,12.4-0.3,18.6-0.3c10.3,0.1,19-4,22.8-15.4c2.6-8,3-16.3,3.8-24.6C127.5,58.8,126.6,45.3,124.1,32.1z M61.2-94.9
		c-1.5-0.3-3.8-0.3-4.1-2c-0.3-2,1.8-1.9,3.2-1.9c1.8-0.1,3.5,0.2,3.6,2.4C63.9-95,62.4-94.7,61.2-94.9z M91.7-88.1
		c-1.7,1.3-0.4,4.6-2.9,4.8c-2,0.1-1.1-1.8-1.1-2.4c1.1-4-2-3.4-3.4-3.9c-1.6-0.5-2.9-0.7-2.2-2.8c0.7-2.5,2.1-0.3,3.1-0.4
		c2.2-0.1,3.5,2.3,5.8,2.4C91.9-90.3,92.7-88.9,91.7-88.1z M95.8-86.9c-0.4-0.1-0.6-0.5-1-0.8c0.2-0.1,0.4-0.3,0.7-0.5
		c0.4,0.2,0.9,0.4,1.1,0.7C96.8-86.9,96.1-86.8,95.8-86.9z M113.7-24.3c-0.3-0.1-0.7-0.2-0.8-0.4c-0.1-0.2,0.2-0.5,0.3-0.8
		c0.3,0.1,0.5,0.2,0.8,0.4c0,0,0,0,0,0l0,0C114-24.8,113.9-24.5,113.7-24.3z M-117.9,85.5c-0.1-0.1-0.3-0.3-0.4-0.4
		c0.1-0.1,0.2-0.2,0.3-0.3c0.1,0.1,0.2,0.2,0.3,0.3C-117.8,85.2-117.8,85.3-117.9,85.5z M-115.3,87.1c0-0.3,0.1-0.7,0.4-1.2
		c0.2-0.4,0.5-0.9,0.8-1.5c0.6,1.5,1.1,2.9,1.6,4.3c0,0,0,0,0,0c0,0,0,0,0,0C-114.4,88.1-115.3,87.8-115.3,87.1z"/>
	<path fill="#E4D1B7" d="M25.4-99.9c0.5-0.6,2.6,0.9,2.3-1.3c-0.1-0.8,0.9-2-0.5-2.6c-1.2-0.5-2.2-0.3-3.1,0.6
		c0.2,1.4,0.3,2.9,0.3,4.3C24.7-99.2,25.1-99.5,25.4-99.9z"/>
	<path fill="#E4D1B7" d="M22.9-80.6c1.7,0.6,2.8-0.1,4.3-1.7c-4.8-1.1-5.4-2.2-2.6-3.2c1.4-0.5,2.6-1.2,4-1.8
		c2.5,1.3-2.5,6.2,3.8,5.7c-3.4,1.6-6.2,2.4-8.2,4.6c-1.6,1.7-3.1,0.6-4.5,0c0,0-0.1,0-0.1-0.1C14.1-66.3,4.6-58-7.1-54.3
		C-0.2-41-0.4-24.9-7.6-11.8c1.7,0,2.7,1.1,2.6,2.6c-0.1,2-2,0.9-2.9,1.4c-0.7-0.1-1.5,0-2.1-0.2c-1.5,2.2-3.3,4.4-5.3,6.4
		c-14.3,14.3-35.7,17-52.7,8.2c-5.8,18.3-22.9,31.5-43.1,31.5c-0.6,0-1.2,0-1.8,0c0,0.1-0.1,0.2-0.1,0.3c0-0.1-0.1-0.2-0.1-0.3
		c-0.9,0-1.9-0.1-2.8-0.2c0.1,0.9-0.1,1.9-1.4,2.6c-2,1.3-2.5,4-0.7,7c1.4,2.4,1.1,5.6-0.1,8.6c-0.5,1.3-2.8,3.9,0.7,5.1
		c0.3-1.5-1-4.1,2.3-3.7c0.8,0.1,1.5,0.9,1.3,1.9c-0.5,1.9-2.1,1.8-3.6,1.8c-4.4,3.6-0.5,9.7-4.4,13.6c2.7-0.8,4.9,0.1,6.2,1.8
		c2.8,3.6-4.2,3-3.2,6.3c1.9,0.2,3-2.2,5.2-0.8c3.4,2.3,7.4,2.8,11.3,3.4c2.4,0.4,5.2,0.6,7.1,1.9c2.3,1.7,0.1,4.9,0.9,7.3
		c0.1,0.4,0.5,0.7,0.8,1.3c2.3-1.5,2.5-3.7,1.9-5.8c-0.6-2.3-0.4-2.7,2.2-2.6c3.4,0.2,6.8-0.8,10.3-0.9c3.7-0.1,6.8-2.1,10.4-2.5
		c1.5-0.2,3.3-0.1,3.5,1.9c0.2,1.8-1.6,2-2.8,2c-2.2,0-3.9,0.9-5.2,2.5c-2.2,2.8-7.2,1.8-8.2,6.2c0,0.1-1.6-0.4-2.3-0.2
		c-4.1,1.3-9.3,0.2-11.8,5.3c-2.2-2.7-2.2-2.8-5.6-1.5c-1.1,0.4-2,0.7-2.6-0.3c-0.8-1.3,0.3-1.6,1.3-2c1.1-0.5,2-1.1,3-1.7
		c2.7-1.7,1.3-4.4,0.6-6c-0.8-2-2.4,0.6-3.6,0.6c-4.6,0.2-4.7,5.1-7.3,7.3c-1.3,1.1-3.8,6-1.4,8.1c2.6,2.3,6.3,4,9.5,5.2
		c1.6,0.6,5.9-1,8.5-2.9c1.1-0.8,2.8-1,4.2-1.5c8.1-3.2,16.6-0.3,24.9-2c6.7-1.4,14.1,0.7,20.9-0.4c11.2-1.9,22.3,0.2,33.3,0
		c5.3-0.1,11-1.4,16.8,0.1c6.5,1.7,13.5-2.2,20.5-1.4c4,0.5,7.6-3.5,11.7-0.9c3.9,2.4,7.1,0.9,10.5-1.3c2-1.3,4.6-4.4,7,0.2
		c0.9,1.6,3.3,0.8,5.1,0.2c1.3-0.5,2.4-1.6,4.2-1c4.4,1.7,8.7,3.6,13.7,3.8c2.8,0.1,6.2-1,8.6,0.6c0.8,0.5,1.6,0.9,2.4,1.2
		c0.5,0.2,1.1,0.3,1.7,0.4c0.3,0.1,0.6,0.1,0.8,0.1c2.8,0.4,5.6,0,8.4,0.3c-0.8-2.3-0.4-3.2,2.1-1.9c2.4,1.2,5.3-1.8,5.3-1.9
		c-1.5-5,8.2-7.7,2.8-13.4c-0.1-0.1-0.1-0.4,0-0.5c2.7-3.7,3.8-7.9,4.8-12.3c1-4.2,2.9-8.2,4.4-12.3c-5.4-2.3-0.9-7.4-2.8-11.3
		c-1.4-2.9,1.9-8.6-1.6-12.7c1.7-12.6-1.8-25.1,0-37.7c0.5-3.2-2.9-4.1-3.2-6.9c-0.8-7.3,1.5-14.6-1.6-22c-1.5-3.5-1.2-7.4-4.8-10.1
		c-1.8-1.3-3.3-4-2-6.7c2.3-4.8,5.4-9.4,4.2-14.9c-0.9-4.2,2.8-10.5-4.9-12c-0.3-0.1-0.6-1.3-0.4-1.7c1.5-2.8-1.2-4.6-1.6-7
		c-0.2-1-1.7-2.4-2.2-0.7c-1.1,4.1-2.8,1-3.9,0.4c-3.1-1.8-5.6-4.3-9.7-1.8c-1.6,1-4.5,0.8-5.8-1.4c-1.5-2.5-3.7-2.4-6-2.4
		c-2.2-0.1-6-0.3-5.9-1.9c0.1-4-1.6-1.6-2.8-1.4c-3.9,0.9-7.5,0.7-10.3-2.7c-0.1-0.1-0.3-0.1-0.4-0.2c0.1,0.1,0.3,0.1,0.4,0.2
		c2.5-0.1,5.1,0.6,8.5-1.1c-5.6-2-10.4,0-16-0.3c4.4-4,6.8-8.3,11.1-10.7c-2.5-2.1-3.9,2-5.7,0.4c-1.6-1.5-3.5-2.1-5.3-3.1
		c-1.1,3.1,1.8,2.9,3,3.8c-1.3,1.4-2.4,0.8-3.5,0.7c-1.6-0.2-3.5-2.3-4.6-0.4c-0.4,0.7-0.7,4,2.3,5c1.7,0.5,0.5,1.9-0.4,2.6
		c-2.4,1.7-5.5,1.1-6.8-0.5c-0.6-0.8-1.3-1.2-1.9-1.5c-0.3-0.1-0.6-0.2-0.9-0.3c-1.6-0.3-3.2,0.3-4.8,0.6c-0.3,0.3-0.7,0.7-1,1h0
		c0.1,1.8,1.3,2.1,2.8,1.9c1-0.1,2.6-1.2,2.5,0.9c-0.1,1.2-1.8,2.7-2.9,2c-2.7-1.5-5.4-0.9-8.1-0.7c-0.5,2.9-1.3,5.7-2.3,8.4
		C21.9-81.1,22.4-80.8,22.9-80.6z M21.2-52.8c1.4,0.1,2.9,0.3,2.8,2c-0.1,2-2.2,2.1-3.5,2.7c-1.7,0.1-2-0.9-2-2.2
		C18.4-52.2,19.4-52.9,21.2-52.8z M18.4-61.6c0.7,0.2,1,0.9,0.5,1.6c-1.3,2.1-3.2,2.6-6.6,1.6C15-59.6,15.6-62.4,18.4-61.6z
		 M17.1,72.9c-0.1,0.3-0.2,0.7-0.4,0.8c-0.2,0.1-0.5-0.2-0.8-0.3c0.1-0.3,0.2-0.6,0.4-0.8c0,0,0,0,0,0c0,0,0,0,0,0
		C16.5,72.7,16.8,72.8,17.1,72.9z M11.8-54.5c1.2,0.7,3.2,0.7,2.8,2.2c-0.3,1.1-1.9,2.2-3.4,2.3c-1.3,0.1-1.6-0.8-1.6-1.9
		C9.7-53.4,10.3-54.4,11.8-54.5z M6.2,58.6c-3.7,2.1-6.7,1.6-9.8,0C-0.7,58.6,2.3,58.6,6.2,58.6z M-1.7,81c1.5-0.1,3-1.5,5,0.1
		c-3.1,2.5-6,3.9-9.4,1.2c-1.4-1-1.1-2-0.3-2.9c1.5-1.8,1.4-0.3,1.8,0.9C-4.2,81.9-2.8,81.1-1.7,81z M-4.6,71.9c2-1.3,4-2.7,6.2-0.9
		c0.5,0.4,0.8,1.2,0.2,1.6C-0.6,74.2-2.4,71.5-4.6,71.9z M-2.4,8.5c-2.7,3.4-5.8,4.1-10.2,1.6C-8.9,8.6-5.9,7.6-2.4,8.5z M-7.8,83.5
		c-1.9,1.2-3,2.5-5.3,1.7C-11.7,83.5-10.4,82.9-7.8,83.5z M-8.7,68.3c-2.5,2.3-4.7,2.2-8,1.2C-14,67.8-12,66.3-8.7,68.3z M-31,64.1
		c2.3,0.4,3.9-1.7,6.1-1.8c1.7-0.1,3.5,0,5.2,0c-3.6,7.2-11.4,1.2-15.9,5.9C-35.4,63.3-35.4,63.3-31,64.1z M-28.9,72.4
		c-1.6,3-3.6,3.2-5.7,2.5c-0.6-0.2-1-1.1-0.5-1.6C-33.5,71.2-31.3,72.4-28.9,72.4z M-38.8,43.4c1.3,0.2,2.8,0.5,2.9,2.2
		c0.1,1.8-1.5,1.4-2.6,1.5c-1.2-0.2-3,0.3-2.8-1.8C-41.1,44-40.1,43.2-38.8,43.4z M-40.7,65c-1.2,1.6-2.4,2.4-4,1.8
		c-0.2-0.1-0.4-1-0.2-1.2C-43.9,64-42.6,63.9-40.7,65z M-44.4,27.7c1.2,0.2,2.4,0.3,3.6,0.4c-2.2,1.6-3.9,5.7-6.3,3.3
		C-49.5,29-48,27.1-44.4,27.7z M-48.4,64.7c0.3,0.3,0.6,0.7,0.7,0.9c-0.1,0.8-0.4,1.2-0.9,1.1c-0.3-0.1-0.7-0.7-0.7-1.1
		C-49.2,65.2-48.7,65-48.4,64.7z M-54,55.1c-3.7,2.7-6.9,1.4-10,0.4c-0.6,0-1.2-0.2-1.8-0.5c0.6,0.1,1.2,0.3,1.8,0.5
		C-60.8,55.8-57.4,53.1-54,55.1z M-56.3,70.7c-3,0.4-5.3,0.7-8.7,1.2C-62,68.9-60,66.8-56.3,70.7z M-66.2,57.4
		c1.7-0.1,3.1,1,3.2,2.4c0.1,2.1-1.9,1-3,1.4c-1.1-0.4-3,0.7-2.9-1.4C-68.9,58.4-67.6,57.5-66.2,57.4z M-97.1,46
		c0.4-1.2,2.2-1.3,3.5-1.4c0.8,0,1,0.7,1,1.4c0,2.2-1.3,1.7-2.7,1.5c-0.7-0.1-1,0.6-1.2,1.3c-1.4,6.5-3.9,2.2-6.7,0.7
		C-100.5,48.9-98.1,48.8-97.1,46z M-97,59.4c0.1,1-0.5,2.5-1.9,2.3c-1.4-0.2-3.1-0.7-3.1-2.5c0-1.3,1.4-0.9,2.2-1.1
		C-98.6,58.4-97.1,57.8-97,59.4z M-115.3,51.7c-0.2-1.4-2.3-3.6,0.1-4.3c4-1.2-0.4-2.6,0.1-3.6c0.4-0.3,0.6-0.5,0.7-0.5
		c4.5,0.4,4.5,0.4,7.4,7.3c-2.1,0.9-4.1,0-5.7,1.3C-113.6,52.7-115,53.7-115.3,51.7z M-114.9,72.1c-1-0.5-1.8-1.7-1.1-2.9
		c3.1-5.1,3.7-12,10.4-14.9c0,9.2,0,9.2-4.3,10.6c3.2,1.7,3.3,1.8,5.6-0.2c1.3-1.1,2.4-2.1,3.8-0.7c1.8,1.8-0.6,1.8-1.3,2.7
		c-0.5,0.6-0.6,1.5-0.8,2.3c-0.3,1.2-1.9,2.6-2,2.6C-108.4,66.4-111.4,73.8-114.9,72.1z M-81.5,78.2c-2.6,0.1-5.4,1.3-7.9,0.2
		c-0.8-0.4-1.6-1-2.4-2c-0.6-0.8-3.1-0.3-4.7-0.3c-0.9,5-6,2.6-8.5,4.8c-0.5,0.4-1.8-0.8-1.3-1.5c1.2-1.9-2.5-3.2-0.4-4.8
		c1-0.8,2.4-0.7,3.2,0.2c0.6,0.8,1.3,1.3,2,1.6c0.3,0.1,0.6,0.2,0.9,0.3c0.4,0.1,0.9,0.1,1.3,0.1c0.9,0,1.9-0.3,2.9-0.7l0,0
		c0-0.4,0-0.7,0.1-1s0.2-0.6,0.4-0.9c0.2-0.3,0.4-0.5,0.6-0.8c0.2-0.3,0.4-0.5,0.6-0.8c0.6-1-0.3-3.1,1.7-3.1c1.6,0.1,2.4,1.3,2.8,3
		c0.5,2.2,2.8,2,4.5,2.5c1.9,0.5,4,0.5,4.5,3.1c0.1,0.2,0.3,0.3,0.4,0.5C-81.2,78.5-81.4,78.3-81.5,78.2L-81.5,78.2z M-81.1,62.1
		c-1.7,0.4-4.5-0.7-4.7,1.5c-0.3,3.6,3.4,2,5.6,3c-1,1.9-2.3,1.6-3.6,1.3c-1.6-0.3-3.2-0.9-4.8-1.3c-3.1-0.7-11.3,1.1-2.4-5.1
		c0.1-0.1,0.2-0.3,0.2-0.4c0.3-1.8-1.8-3.9,0.4-5.5c1.8-1.3,3.1,1.8,5.3,0.7c1.9-0.9,3.6,0.6,5.1,2.2c1.3,1.4,5.3,0.7,4.5,3.4
		C-76.3,64.8-79.1,61.7-81.1,62.1z M-75,68c-0.7,0-1.2-0.5-0.9-1.2c0.1-0.3,0.8-0.4,1.2-0.4c0.3,0.1,0.6,0.5,1.1,0.9
		C-74.3,67.7-74.7,68-75,68z M-71.6,68.7c1-1,2-0.6,3.6-0.2C-69.5,69.3-70.5,69.3-71.6,68.7z M-72.3,94.7c0,0.1-0.1-0.2-0.1-0.5
		c0-0.9,0.3-1.8,1.3-1.8c5.7-0.1,8.5-10,15.6-4.6C-60.4,91.7-65.6,95.1-72.3,94.7z M-57.1,84.5c-1.4-0.7-4,0.6-4.1-1.7
		c-0.2-2.5,2.8-0.8,3.9-2.1c-2.7-1.9-6.1-1.3-9-2.4c-0.9-0.4-2.1-0.4-1.9-1.7c0.2-1.2,1.3-1.4,2.3-1.3c2.5,0.1,5.3-0.8,7.2,1.1
		c3.9,3.8,6.8-0.1,7.8-2c2.5-4.9,5.6-5.2,10.4-3.3c-2.4,2.8-5.9,2.2-9,4.8c7.2,0.2,13.2,1.5,19.7,1.2c5.4-0.3,10.4-2.1,15.7-2.8
		c1.1-0.1,3-0.7,3.3,1.2c0.2,1.3-1.4,1.7-2.5,1.9c-4.3,0.8-8.7,1-13.1,1.4c-8.2,0.7-16,0-23.9-1.3c-1.2-0.2-1.9,0.4-1.9,1.7
		c0,1.1,0.5,1.9,1.7,2c2.7,0.3,5.3-0.2,7.9-0.8c2.1-0.5,4.4-0.2,5.9,1.7c0.4,0.5,0.3,1.3-0.3,1.8c-1.8,1.5-4.3,2.1-6.1,1.1
		c-3.6-2.1-7-0.5-10.5-0.4C-54.9,84.4-56,85-57.1,84.5z M-16.3,96.8c2.6-2.9,4.6,0.2,6.6,0C-11.7,96.8-13.6,96.8-16.3,96.8z
		 M8.1,91.8c-1.5,0.6-3.2,0.5-4.2,2.2c-0.7,1.2-2.7,1.9-3,0c-0.7-3.6-2.6-2.4-4.7-1.9c-3.4,0.8-6.9,1.2-10.2,2.1
		c-2.7,0.7-4.8,0.6-6.7-1.9c-1.3-1.8-2.6-4.7-5.8-2.3c-0.1,0.1-0.6-0.5-0.8-0.4c-2.1,0.2,2.2-5-2.3-2.7c-0.9,0.5-3.4-0.3-2.1,2.3
		c-1.6,0.1-3.3,0.2-4.8,0.3c-1.1,2,3.6,1,1.4,3.5c-1.2,1.3-2,0.5-3.2,0.5c-3.3,0.1-6.1-1-9-2c-1-0.4-2.6,0.1-2.7-1.5
		c-0.1-1.7,1.4-1.5,2.5-1.8c1.4-0.3,2.7-0.7,4.3-0.5c3,0.4,6.3-0.7,7.7-3.3c2.3-4.4,5.4-3,10-2.4c-3.1,0.9-5.5-0.6-7.2,1.6
		c4,2.6,7.7,0,10.9-0.9c3.9-1.2,5,0.6,6.8,2.8c-0.7,1.5-2.2,0.5-3,1.3c-0.8,0.7-1.5,1.5-1,2.6c0.5,1.2,1.7,1.1,2.5,0.5
		c3-2,7-0.9,9.7-3.5c0.8-0.7,1.8-1.1,2.6-0.1c3.7,4.8,8.5,4.1,13.3,2.8c2-0.6,3.5,0.1,5.2,1.1C12.5,93,10,90.9,8.1,91.8z M18.7,90.8
		c-0.1,0-0.1,0-0.2,0c-0.2,0-0.4-0.2-0.7-0.3c0,0,0,0,0,0c0,0,0,0,0,0c0.1-0.2,0.2-0.5,0.3-0.7c0-0.1,0.1-0.1,0.1-0.1
		c0.2-0.1,0.5,0.2,0.8,0.3C19,90.2,18.9,90.7,18.7,90.8z M18.3,80.7c-1.6-1.4-4.6-1.2-2.8-4.5c0,0,0,0,0,0l0,0l0,0c0,0,0,0,0,0
		c-2.8,0.6-2.9,3.5-3.9,5.3c-1.4,2.6-2.5,1.1-3.4,0.3c-1.5-1.5-2.8-2.9-3.9-3.3C6,79,7.2,78.1,8.4,77c0.2-0.2,0.4-0.4,0.6-0.5
		c0.2-0.2,0.4-0.4,0.6-0.5c0.3-0.3,0.6-0.5,0.9-0.7c0.4-0.3,0.9-0.5,1.4-0.6c0.2,0,0.4-0.1,0.7-0.1c0,0,0,0,0,0
		c0.9,0,1.8,0.5,2.9,1.6c0,0,0,0,0,0c0,0,0,0,0,0c2.7-1,5.3-2,8-3c-0.1-0.1-0.2-0.2-0.4-0.2c0.1,0.1,0.3,0.1,0.4,0.2l0,0
		c0.6,0.1,1.4,0.1,1.8,0.4c0.3,0.2,0.5,0.5,0.5,0.9c0.1,1.2-1,1.3-2.1,1.3c-2.5-0.1-3.1,1.8-3.7,3.8c2.5,0.4,3.6-1.9,5.5-2.2
		c-0.2,5,0.6,5.7,6.6,4.9c1.1-0.1,2.6-0.7,2.9,0.9c0.4,2.1-1.5,1.8-2.7,1.8C27.2,85.2,22.5,84.4,18.3,80.7z M29.3,79.9
		c1.3-3.3,3.8-4.1,6.9-3.8c1.3,0.2,2.2,0.6,2.2,2.1C38.3,80,37.2,80,36,79.5C33.8,78.5,31.9,80.6,29.3,79.9z M39,90.5
		c-1.6,3.4-5.3,0.5-7.1,2.1c-1.4,0.4-2.5-0.1-2-0.9c1.7-3,5.2-0.5,7.5-2.1C38,89.1,39.4,89.6,39,90.5z M54.8,75.4
		c-0.5,1.2-2.6,1.1-3.5,0.2c-1.2-1.2,0.4-1.9,1-2.8c0.8-1.1,1.6-2.1,2.4-3.1c0.7-1,1.1-3.1,2.7-2.2c1.9,1.1-0.4,2-0.7,3
		c-1,3.1,2.5,0.7,2.9,2.4C57.7,73.2,55.8,73.2,54.8,75.4z M61.7,35.6c0.4,1.2,0.8,2.4-1.1,2.5c-1.4,0.1-2.1-0.8-2.1-2.1
		c0.1-2.2-0.2-4-3.1-3.9c-1.2,0.1-2-0.7-1.4-1.9c0.7-1.5-0.3-3.5,1.4-4.6c1.2-0.7,2.8,0.1,3.1,0.9c1.1,2.9,4.3,2.8,6.7,5.2
		C62.6,32.1,60.9,32.9,61.7,35.6z M56.5-62.3c-1.5,0-2.4-1.2-2.7-2.5c-0.4-1.5,0.7-2,2-2c1.5-0.1,2.7,0.4,2.6,2.1
		C58.3-63.5,57.9-62.3,56.5-62.3z M57.8,58.7c0.2,0.1,0.3,1,0.1,1.3c-2.5,3.4-7.1,1.9-9.4,4.3c-1.6-0.2-2.8,0.3-3.4-0.8
		c-0.6-1.1,0.4-1.8,1.1-2.5c0.7-0.7,1.6-1.6,2.4-1.6C51.7,59.4,54.6,57.1,57.8,58.7z M59.5,88.7c1.7-1.1,3.1-3,5.9-1.8
		C63.8,89.2,61.8,89.2,59.5,88.7z M94,79.2c0.5,3-0.2,5.4-2.6,7.9c-1.9-3.7-3.6-7.6-8.4-3.3c-0.9,0.8-2.6-0.1-2.8-1.2
		c-0.3-1.4,1.2-2.9,2.4-2.7c3.9,0.8,6.5-1.3,9.3-3.2c0.9-0.6,2-0.7,2.8,0.1C96,77.9,94,78.9,94,79.2z M91.2,27.1
		c0.9,2.5-0.9,3.9-2.7,5.8c-1.2-2.8-1.6-4.8,0.6-6.4C89.8,26,90.9,26.2,91.2,27.1z M90.2,23.8c0-0.1,0.1-0.3,0.1-0.3
		c0.1,0,0.1,0,0.2,0s0.1,0.1,0.2,0.1c0,0.1-0.1,0.2-0.1,0.3c0,0,0,0,0,0C90.5,23.9,90.4,23.8,90.2,23.8z M91.1,5.5
		c-0.6,2.5-2.7,3.7-4.9,4.4c-1.3,0.4-2.5-0.6-2.4-1.8c0.2-3.5,3.8-2.4,5.3-3.7C90.4,4.2,91.3,4.5,91.1,5.5z M105,72.6
		c-2.4,0.2-1.1-2.2-1.9-3.3c-0.8-1.2-0.2-2.1,1.1-2.8c1.3,0.7,2.8,1.5,2.8,3.1C107.1,70.8,106.4,72.5,105,72.6z M108,84.9
		c-0.4,0.2-0.8,0.7-1.4,0.8c-0.9,0.1-1-0.6-0.9-1.3c0.1-0.8,0.6-1.1,1.3-1.1C107.8,83.4,108.1,83.9,108,84.9z M109.7,92.2
		c-0.8,1.1-1.1,2.9-2.9,2.8c-1,0-1.3-0.9-1.1-1.8c0.4-1.5,1.4-2.4,2.8-2.9C109.4,90.8,110.4,91.2,109.7,92.2z M108.3,80.8
		c-1.3-2.1-0.6-3.3,1.2-4.1c0.6-0.3,1.5-0.4,1.7,0.3C111.6,79.3,109.6,79.8,108.3,80.8z M111.6,55.8c-1.7,0.6-2.7-0.5-4.3-1.9
		c2.3-0.8,3.8-1.3,4.9,0.2C112.6,54.8,112.2,55.6,111.6,55.8z M104.2-6.5c3.6-2.5,1.6-6.7,3.1-11.2c2.1,5,0.4,8.5,0.1,12.1
		c-0.1,1.2-0.8,1.9-2,1.5C104.5-4.5,103.6-6.1,104.2-6.5z M108.2,21.3c0.7,0.1,1.4,0.8,1,1.4c-1,1.8-2.4,3.8-4.4,4.2
		c-2.1,0.5-4.5,0-5.4,3.4c-0.9-4,2.5-6.2,1.6-9.4C103.4,21.1,105.8,21.2,108.2,21.3z M100.6,3.1c-1.1,0.2-1.9-0.4-2.3-1.4
		c-0.4-1.2,0.4-1.3,1.2-1.5c1-0.3,2-0.9,3.9-1.8C102.6,0.6,103.1,2.7,100.6,3.1z M98.5-24c1.3-2.4,2.9-0.2,4.5,0.1
		c-2,0.3-2.4,3.8-4.8,2.5C97.2-22,98.1-23.3,98.5-24z M97.7,43.8c2.5-2.8,5.2-6,8.5-7.2c3.6-1.4,7,3.9,5.4,7.7
		c-0.5,1.2-1.3,2.3-2.1,3.8c-1.7-1.8-0.7-3.2-0.3-4.5c0.5-1.7,0.4-3.5-1.6-4.2c-1.8-0.6-2.8,0.7-3.4,2.1c-0.9,2.1-2.2,3.7-4.5,4.3
		C98,46.4,96.8,44.8,97.7,43.8z M101.2,79.6c0.9-0.7,2,0.4,2.7,1.2c-0.8,3.6-4,1.8-5.8,2.9c-0.8,0.5-2.5,0.4-2.1-0.9
		C96.7,80.6,99.5,80.9,101.2,79.6z M96,53.3c0,0.2,0,0.3,0,0.5c-0.1,1.7-1.3,3.1-3.2,3c-1.3-0.1-2.6-0.9-2.2-2.7
		c0-0.2,0.1-0.4,0.2-0.5c0.4-1.2,1.1-2.3,2.7-2.3c0.6,0,1.2,0.2,1.5,0.5C95.7,52.1,96,52.7,96,53.3z M85.2-76.2
		c0.4,0,0.8,0.2,1.1,0.3c0.3,0.2,0.6,0.4,0.8,0.8c0.2,0.3,0.3,0.8,0.4,1.3c0,0,0,0,0,0c0,0,0,0,0,0c1.4,0.7,2.1,0.8,2.5,0.4
		c0,0,0,0,0-0.1c0.1-0.1,0.2-0.3,0.3-0.5c0.1-0.2,0.1-0.5,0.2-0.8c0-0.1,0-0.3,0.1-0.4c0-0.3,0.1-0.6,0.1-0.9
		c0.1-0.6,0.4-1.1,0.9-1.3c1.3,1.9,1.6,4.2-0.1,5.5c-1.3,1.1-3.5,0.6-4-1.9c0,0,0,0,0,0l0,0c0,0,0,0,0,0c-1.4-0.2-2.8-0.5-3.8-2.4
		C84.2-76.3,84.7-76.3,85.2-76.2z M80.7,56.4c0.7-0.7,2.5-0.7,3.2,0.4c1,1.5-0.1,2.7-0.9,4c0,0.3-0.2,0.6-0.5,1
		c0.1-0.3,0.3-0.7,0.5-1C83.2,58.9,78.5,58.6,80.7,56.4z M80.1,86.3c2.7,0.9,5.6,4.1,7-1.5c0.1-0.5,1.7-0.2,1.6,0.3
		c-0.3,1.9,2.3,3.2,1,5.3c-1.6,2.9-6.9,4.6-9.6,1.9c-2.4-2.3-3.8-2.1-6.3-0.6c-1.7,1-3.8,0.6-6.8-0.2c3.8-2.6,8-1.9,10.2-5.2
		C77.5,85.9,79.2,86,80.1,86.3z M67.6,58.9c0.3-1.8,1-3.5,3.3-3.2c0.6,0.1,1.3,1.6,1.3,2.4c0,1.1-0.8,1.8-1.9,0.7
		C69.4,58.1,68.6,60.2,67.6,58.9z M75.2-79.4c0.3,0.1,0.7,0.2,0.8,0.4c0.1,0.2-0.2,0.5-0.3,0.8c-0.3-0.1-0.5-0.2-0.8-0.4l0,0
		c0,0,0,0,0,0C75-78.8,75.1-79.1,75.2-79.4z M77.5-37.6c0.6-0.3,1.6,0,1.5,0.7c-0.2,1.7-1.4,2.8-2.5,3.7c-1,0.1-1.6-0.1-1.7-0.9
		C74.6-36,75.9-36.9,77.5-37.6z M74.6,12.6c1.2,3.8-2.8,5.5-5.4,8.1c-0.4,0.3-1.3,0.4-1.8,0.2c-0.9-0.4-0.8-1.3-0.6-2.1
		c0.7-2.7,1.2-5.5,2.1-8.1c0.6-1.7,0.5-4.5,3.3-4.2C75.2,6.8,74.3,9.6,74.6,12.6z M47.4-85.4c0.9-1.9,2.2-0.7,3.3-0.4
		c0.4,0.1,0.8,0.2,1,0.4c0.2,0.1,0.3,0.3,0.4,0.5c0.1,0.1,0.1,0.2,0.1,0.3c0.1,0.2,0.1,0.5,0.1,0.7c0,0,0,0,0,0c0,0,0,0,0,0
		c1.3,0.5,2.6,0.6,3.9,0.6c0.4,0,0.9,0,1.3-0.1c1.8-0.1,3.6-0.3,5.3-0.2c3.4,0.4,6.2,2.8,9.8,2.2c-2.7,2.1-5.8,2-8.2,0.8
		c-3-1.5-5.6-1.6-8.6-0.7c-2.3,0.7-3.4-0.3-3.7-2.6c0,0,0,0,0,0h0c0,0,0,0,0,0c-0.8,0.1-1.6,0.1-2.4,0.3c-1.1,0.2-2.2,1.3-3.1,0
		C46.8-84,47.1-84.9,47.4-85.4z M45.7-21.7c0.5-1.4,2.3-2.5,3.7-1.8c1.9,0.9,0,2.2-0.3,3.4c-0.9,3.5-2.3,6.8-6.3,8.8
		C42-15.7,44.5-18.5,45.7-21.7z M43.1,83.4c4.2,0.9,8.5-3.7,12.5,1c-3.4,2.9-8.1,1.4-12,2.7c-1.4,0.5-1.3-0.9-1.3-1.9
		C42.3,84.4,41.7,83.1,43.1,83.4z M55.8,88.3c-4.5,3-9.6,1.2-14.4,1.3C46.1,87.1,51.1,89.3,55.8,88.3z M39.9-89.8
		c1,0,1.8,0.6,2.1,1.4c-0.6,1.3-1.3,2.2-2.6,2.2c-1.1,0-1.7-0.9-1.8-1.9C37.5-89.7,38.7-89.8,39.9-89.8z M37.2,70.1
		c-1.3,1.9-3.6,2.1-4.7,3.9c-0.9,1.3-1.6,0-2.2-0.6c-0.6-0.7-0.8-1.7,0.2-2C32.6,70.7,34.2,67.7,37.2,70.1z M34.2-69
		c1.2-0.3,1.3,0.6,1.2,1.7c-0.4,2.3-2.9,1.2-4.3,2c-0.8,0.4-1.7-0.3-1.4-1.3C30.5-68.6,32.5-68.6,34.2-69z"/>
	<polygon fill="#E4D1B7" points="29.5,-93.8 29.5,-93.8 29.5,-93.8 	"/>
	<polygon fill="#E4D1B7" points="30.5,-94.8 30.5,-94.8 30.5,-94.8 	"/>
	<path fill="#E4D1B7" d="M101.5,107.2L101.5,107.2L101.5,107.2L101.5,107.2C101.5,107.2,101.5,107.2,101.5,107.2L101.5,107.2
		C101.5,107.2,101.5,107.2,101.5,107.2z"/>
	<polygon fill="#E4D1B7" points="29.5,-93.8 29.5,-93.8 29.5,-93.8 29.5,-93.8 	"/>
	<path fill="#E4D1B7" d="M90.9-90.4c-2.3-0.1-3.6-2.5-5.8-2.4c-1,0.1-2.3-2.2-3.1,0.4c-0.6,2.1,0.6,2.3,2.2,2.8
		c1.5,0.4,4.5-0.1,3.4,3.9c-0.1,0.6-0.9,2.6,1.1,2.4c2.4-0.2,1.2-3.5,2.9-4.8C92.7-88.9,91.9-90.3,90.9-90.4z"/>
	<path fill="#E4D1B7" d="M29.5-93.8L29.5-93.8c0.3-0.3,0.7-0.7,1-1l0,0c0,0,0,0,0,0C30.2-94.5,29.8-94.2,29.5-93.8z"/>
	<path fill="#E4D1B7" d="M30.5-94.8C30.5-94.8,30.5-94.8,30.5-94.8C30.5-94.8,30.5-94.8,30.5-94.8L30.5-94.8L30.5-94.8
		c0.1-0.4,0.2-0.8,0.3-1.1c0.1-0.3,0.2-0.5,0.4-0.8c0.1-0.2,0.2-0.3,0.3-0.4c0.3-0.4,0.7-0.6,1.1-0.7c0.3-0.1,0.6-0.1,0.9-0.1
		c0.3,0,0.6,0,1,0.1c0.8,0.2,1.7,0.4,2.6,0.7c1.7,0.5,3.1-0.2,3.2-2.1c0-2-1.8-1.8-3-1.6c-2.9,0.5-5.8,1.4-8.7,1.9
		c-2,0.3-0.9,1.6-1.2,2.5c-0.6,2.1,0.2,2.7,2.1,2.5l0,0C29.8-94.2,30.2-94.5,30.5-94.8z"/>
	<polygon fill="#E4D1B7" points="29.5,-93.8 29.5,-93.8 29.5,-93.8 29.5,-93.8 	"/>
	<path fill="#E4D1B7" d="M60.3-98.8c-1.4,0.1-3.5,0-3.2,1.9c0.3,1.7,2.6,1.6,4.1,2c1.2,0.3,2.7-0.1,2.6-1.5
		C63.8-98.6,62.1-98.9,60.3-98.8z"/>
	<path fill="#E4D1B7" d="M25.3-93.3c0-0.8-0.4-1.2-1-1.4c-0.1,0.9-0.1,1.8-0.2,2.7C24.6-92.1,25.1-92.4,25.3-93.3z"/>
	<path fill="#E4D1B7" d="M-114.1,84.5c-0.3,0.6-0.6,1.1-0.8,1.5c-0.3,0.5-0.4,0.9-0.4,1.2c0,0.7,0.9,1,2.8,1.6c0,0,0,0,0,0
		C-113,87.4-113.6,86-114.1,84.5z"/>
	<path fill="#E4D1B7" d="M102.3,108.8c0.2,0.1,0.5,0,0.8-0.1c0.3-0.1,0.4-0.7,0.6-1.1c-0.7-0.1-1.5-0.3-2.2-0.4
		C101.6,107.9,101.7,108.7,102.3,108.8z"/>
	<path fill="#E4D1B7" d="M101.5,107.2C101.5,107.2,101.5,107.2,101.5,107.2L101.5,107.2C101.5,107.2,101.5,107.2,101.5,107.2
		L101.5,107.2L101.5,107.2z"/>
	<path fill="#E4D1B7" d="M95.5-88.2c-0.3,0.2-0.5,0.3-0.7,0.5c0.3,0.3,0.6,0.7,1,0.8c0.3,0.1,1,0.1,0.8-0.6
		C96.4-87.8,95.9-88,95.5-88.2z"/>
	<path fill="#E4D1B7" d="M113.3-25.5c-0.1,0.3-0.4,0.6-0.3,0.8c0.1,0.2,0.5,0.3,0.8,0.4c0.1-0.3,0.2-0.6,0.4-0.8l0,0
		C113.8-25.2,113.6-25.3,113.3-25.5z"/>
	<path fill="#E4D1B7" d="M-118.3,85c0.1,0.1,0.3,0.3,0.4,0.4c0-0.1,0.1-0.2,0.1-0.4c-0.1-0.1-0.2-0.2-0.3-0.3
		C-118.1,84.9-118.2,85-118.3,85z"/>
	<path fill="#DDB88C" d="M9,88.8c-4.8,1.3-9.7,2.1-13.3-2.8c-0.8-1-1.8-0.6-2.6,0.1c-2.7,2.6-6.8,1.5-9.7,3.5
		c-0.8,0.6-2,0.7-2.5-0.5c-0.5-1.1,0.2-1.8,1-2.6c0.9-0.8,2.4,0.2,3-1.3c-1.8-2.1-2.9-3.9-6.8-2.8c-3.2,1-6.9,3.5-10.9,0.9
		c1.6-2.2,4-0.8,7.2-1.6c-4.6-0.6-7.7-1.9-10,2.4c-1.4,2.6-4.7,3.7-7.7,3.3c-1.6-0.2-2.9,0.2-4.3,0.5c-1.1,0.2-2.6,0.1-2.5,1.8
		c0.1,1.6,1.7,1.2,2.7,1.5c2.9,1.1,5.7,2.1,9,2c1.2,0,2,0.8,3.2-0.5c2.2-2.5-2.5-1.5-1.4-3.5c1.5-0.1,3.2-0.2,4.8-0.3
		c-1.3-2.6,1.2-1.8,2.1-2.3c4.4-2.3,0.2,2.9,2.3,2.7c0.3,0,0.7,0.5,0.8,0.4c3.2-2.4,4.5,0.6,5.8,2.3c1.9,2.5,4,2.6,6.7,1.9
		c3.4-0.9,6.8-1.3,10.2-2.1c2.1-0.5,4-1.8,4.7,1.9c0.4,1.9,2.3,1.2,3,0c1.1-1.7,2.8-1.6,4.2-2.2c1.9-0.8,4.4,1.3,6.1-1.8
		C12.5,88.9,11,88.3,9,88.8z"/>
	<path fill="#DDB88C" d="M-43.3,84.9c1.8,1,4.3,0.4,6.1-1.1c0.6-0.5,0.7-1.3,0.3-1.8c-1.6-1.9-3.8-2.1-5.9-1.7
		c-2.6,0.6-5.2,1.1-7.9,0.8c-1.2-0.1-1.7-0.9-1.7-2c0-1.2,0.7-1.9,1.9-1.7c7.9,1.3,15.7,2,23.9,1.3c4.3-0.4,8.7-0.6,13.1-1.4
		c1.2-0.2,2.7-0.6,2.5-1.9c-0.2-1.9-2.1-1.3-3.3-1.2c-5.3,0.7-10.2,2.5-15.7,2.8c-6.4,0.3-12.5-1-19.7-1.2c3.1-2.7,6.7-2,9-4.8
		c-4.8-1.9-7.9-1.6-10.4,3.3c-1,1.9-3.9,5.8-7.8,2c-1.9-1.9-4.8-1-7.2-1.1c-1,0-2.2,0.1-2.3,1.3c-0.2,1.3,1,1.4,1.9,1.7
		c2.9,1.1,6.3,0.5,9,2.4c-1.1,1.3-4-0.5-3.9,2.1c0.1,2.4,2.7,1.1,4.1,1.7c1.1,0.5,2.2,0,3.4,0C-50.3,84.4-46.8,82.8-43.3,84.9z"/>
	<path fill="#DDB88C" d="M-104.6,71.5c0,0.1,1.7-1.4,2-2.6c0.2-0.8,0.3-1.7,0.8-2.3c0.7-0.8,3.1-0.8,1.3-2.7
		c-1.4-1.4-2.5-0.4-3.8,0.7c-2.3,2-2.4,1.9-5.6,0.2c4.4-1.4,4.4-1.4,4.3-10.6c-6.7,2.9-7.3,9.8-10.4,14.9c-0.8,1.3,0,2.4,1.1,2.9
		C-111.4,73.8-108.4,66.4-104.6,71.5z"/>
	<path fill="#DDB88C" d="M-75.4,61.9c0.8-2.7-3.2-2-4.5-3.4c-1.5-1.5-3.2-3.1-5.1-2.2c-2.2,1.1-3.5-2-5.3-0.7
		c-2.2,1.6-0.1,3.7-0.4,5.5c0,0.2-0.1,0.4-0.2,0.4c-8.9,6.3-0.7,4.5,2.4,5.1c1.6,0.4,3.2,0.9,4.8,1.3c1.3,0.3,2.6,0.6,3.6-1.3
		c-2.2-0.9-5.8,0.6-5.6-3c0.2-2.3,3-1.2,4.7-1.5C-79.1,61.7-76.3,64.8-75.4,61.9z"/>
	<path fill="#DDB88C" d="M77.2,86.3c-2.2,3.3-6.4,2.6-10.2,5.2c3,0.8,5.1,1.2,6.8,0.2c2.5-1.5,3.9-1.7,6.3,0.6
		c2.7,2.6,7.9,1,9.6-1.9c1.2-2.2-1.3-3.4-1-5.3c0.1-0.4-1.5-0.8-1.6-0.3c-1.4,5.6-4.3,2.4-7,1.5C79.2,86,77.5,85.9,77.2,86.3z"/>
	<path fill="#DDB88C" d="M32.4,85.1c1.2,0,3.1,0.3,2.7-1.8c-0.3-1.6-1.8-1-2.9-0.9c-6,0.7-6.8,0.1-6.6-4.9c-2,0.2-3.1,2.6-5.5,2.2
		c0.6-2,1.1-3.9,3.7-3.8c1.2,0,2.2-0.1,2.1-1.3c0-0.4-0.2-0.7-0.5-0.9c-0.5-0.3-1.2-0.4-1.8-0.4l0,0l0,0l0,0c0,0,0,0,0,0
		c-2.7,1-5.3,2-8,3c-1.8,3.3,1.2,3.1,2.8,4.5C22.5,84.4,27.2,85.2,32.4,85.1z"/>
	<polygon fill="#DDB88C" points="15.5,76.2 15.5,76.2 15.5,76.2 15.5,76.2 	"/>
	<path fill="#DDB88C" d="M68.9,10.6c-0.9,2.6-1.4,5.4-2.1,8.1c-0.2,0.8-0.3,1.7,0.6,2.1c0.5,0.2,1.5,0.1,1.8-0.2
		c2.6-2.5,6.6-4.2,5.4-8.1c-0.3-3,0.6-5.8-2.5-6.1C69.4,6.1,69.5,8.9,68.9,10.6z"/>
	<path fill="#DDB88C" d="M92,76.6c-2.8,1.9-5.5,4-9.3,3.2c-1.1-0.2-2.6,1.2-2.4,2.7c0.2,1.1,1.9,2,2.8,1.2c4.8-4.3,6.5-0.3,8.4,3.3
		c2.3-2.4,3-4.9,2.6-7.9c0-0.3,2-1.2,0.7-2.5C94,75.9,92.8,76,92,76.6z"/>
	<path fill="#DDB88C" d="M99.9,45.9c2.3-0.6,3.6-2.2,4.5-4.3c0.6-1.5,1.6-2.8,3.4-2.1c2,0.7,2.1,2.4,1.6,4.2
		c-0.4,1.4-1.4,2.7,0.3,4.5c0.8-1.5,1.6-2.6,2.1-3.8c1.6-3.9-1.8-9.1-5.4-7.7c-3.3,1.2-6,4.4-8.5,7.2C96.8,44.8,98,46.4,99.9,45.9z"
		/>
	<path fill="#DDB88C" d="M-107.1,50.7c-2.9-6.9-2.9-6.9-7.4-7.3c-0.1,0-0.3,0.2-0.7,0.5c-0.4,0.9,4,2.3-0.1,3.6
		c-2.4,0.7-0.2,2.9-0.1,4.3c0.2,2,1.7,1,2.5,0.3C-111.2,50.7-109.2,51.6-107.1,50.7z"/>
	<path fill="#DDB88C" d="M65.3,31.7c-2.4-2.4-5.6-2.3-6.7-5.2c-0.3-0.8-1.9-1.6-3.1-0.9c-1.7,1-0.7,3.1-1.4,4.6
		c-0.6,1.2,0.2,2,1.4,1.9c2.9-0.2,3.2,1.7,3.1,3.9c0,1.4,0.6,2.2,2.1,2.1c1.8-0.1,1.5-1.3,1.1-2.5C60.9,32.9,62.6,32.1,65.3,31.7z"
		/>
	<path fill="#DDB88C" d="M24.2-77.1c1.9-2.1,4.7-2.9,8.2-4.6c-6.3,0.5-1.3-4.3-3.8-5.7c-1.3,0.6-2.6,1.3-4,1.8
		c-2.8,1-2.2,2.1,2.6,3.2c-1.5,1.6-2.6,2.3-4.3,1.7c-0.4-0.2-1-0.5-1.4-0.7c-0.6,1.4-1.2,2.9-1.9,4.2c0,0,0.1,0,0.1,0.1
		C21.1-76.5,22.6-75.3,24.2-77.1z"/>
	<path fill="#DDB88C" d="M-81.4,78.1c-0.4-2.6-2.6-2.5-4.5-3.1c-1.7-0.5-3.9-0.3-4.5-2.5c-0.4-1.7-1.2-2.9-2.8-3
		c-2-0.1-1,2.1-1.7,3.1c-0.2,0.3-0.4,0.5-0.6,0.8c-0.2,0.3-0.4,0.5-0.6,0.8c-0.2,0.3-0.3,0.6-0.4,0.9s-0.2,0.6-0.1,1l0,0h0l0,0
		c1.6,0.1,4.1-0.5,4.7,0.3c0.8,1,1.6,1.6,2.4,2c2.5,1.1,5.2-0.1,7.9-0.2l0,0l0,0L-81.4,78.1z"/>
	<path fill="#DDB88C" d="M-71.1,92.3c-1,0-1.3,0.9-1.3,1.8c0,0.3,0.2,0.6,0.1,0.5c6.7,0.5,11.9-2.9,16.8-6.9
		C-62.7,82.4-65.4,92.2-71.1,92.3z"/>
	<path fill="#DDB88C" d="M99.4,30.4c0.9-3.5,3.3-2.9,5.4-3.4c2.1-0.5,3.4-2.4,4.4-4.2c0.3-0.6-0.3-1.3-1-1.4
		c-2.4-0.2-4.8-0.3-7.2-0.4C101.9,24.2,98.5,26.4,99.4,30.4z"/>
	<path fill="#DDB88C" d="M-19.7,62.3c-1.7,0-3.4-0.1-5.2,0c-2.2,0.1-3.8,2.1-6.1,1.8c-4.5-0.7-4.5-0.7-4.7,4.2
		C-31.1,63.5-23.3,69.5-19.7,62.3z"/>
	<path fill="#DDB88C" d="M46.2,61c-0.7,0.6-1.7,1.3-1.1,2.5c0.5,1.1,1.7,0.6,3.4,0.8c2.3-2.3,6.9-0.8,9.4-4.3
		c0.2-0.3,0.1-1.2-0.1-1.3c-3.2-1.6-6.1,0.7-9.2,0.7C47.8,59.4,46.9,60.3,46.2,61z"/>
	<path fill="#DDB88C" d="M49.1-20.1c0.3-1.1,2.1-2.4,0.3-3.4c-1.4-0.7-3.2,0.4-3.7,1.8c-1.2,3.2-3.6,6-2.9,10.4
		C46.7-13.4,48.2-16.6,49.1-20.1z"/>
	<path fill="#DDB88C" d="M43.6,87c4-1.3,8.6,0.2,12-2.7c-4.1-4.6-8.3,0-12.5-1c-1.3-0.3-0.8,1-0.8,1.8C42.2,86.1,42.1,87.5,43.6,87z
		"/>
	<path fill="#DDB88C" d="M52.5-83.8c0.3,2.2,1.4,3.3,3.7,2.6c3-0.9,5.6-0.8,8.6,0.7c2.4,1.2,5.5,1.3,8.2-0.8
		c-3.6,0.6-6.5-1.8-9.8-2.2c-1.8-0.2-3.6,0-5.3,0.2c-0.4,0-0.9,0-1.3,0.1C55.1-83.2,53.8-83.3,52.5-83.8z"/>
	<path fill="#DDB88C" d="M52.5-83.8L52.5-83.8L52.5-83.8C52.5-83.8,52.5-83.8,52.5-83.8L52.5-83.8C52.5-83.8,52.5-83.8,52.5-83.8
		L52.5-83.8z"/>
	<path fill="#DDB88C" d="M-96.5,76.2L-96.5,76.2c-1,0.4-1.9,0.7-2.9,0.7c-0.5,0-0.9,0-1.3-0.1c-0.3-0.1-0.6-0.2-0.9-0.3
		c-0.7-0.3-1.4-0.9-2-1.6c-0.8-0.9-2.2-1-3.2-0.2c-2.1,1.7,1.7,3,0.4,4.8c-0.5,0.7,0.8,1.9,1.3,1.5C-102.5,78.8-97.4,81.2-96.5,76.2
		L-96.5,76.2z"/>
	<path fill="#DDB88C" d="M12.6,74.6c-0.2,0-0.4,0-0.7,0.1c-0.5,0.1-0.9,0.3-1.4,0.6c-0.3,0.2-0.6,0.5-0.9,0.7
		c-0.2,0.2-0.4,0.4-0.6,0.5c-0.2,0.2-0.4,0.4-0.6,0.5c-1.2,1.1-2.5,2-4,1.4c1.1,0.4,2.4,1.8,3.9,3.3c0.8,0.8,2,2.4,3.4-0.3
		c1-1.8,1.1-4.7,3.9-5.3C14.4,75,13.4,74.6,12.6,74.6C12.6,74.6,12.6,74.6,12.6,74.6z"/>
	<path fill="#DDB88C" d="M15.5,76.2C15.5,76.2,15.5,76.2,15.5,76.2L15.5,76.2C15.5,76.2,15.5,76.2,15.5,76.2L15.5,76.2z"/>
	<path fill="#DDB88C" d="M56.6,70.5c0.3-1,2.7-1.9,0.7-3c-1.5-0.9-1.9,1.3-2.7,2.2c-0.8,1-1.6,2.1-2.4,3.1c-0.6,0.8-2.2,1.6-1,2.8
		c0.9,0.9,3,0.9,3.5-0.2c1-2.2,2.8-2.3,4.7-2.5C59.1,71.2,55.7,73.7,56.6,70.5z"/>
	<path fill="#DDB88C" d="M-96.5,48.9c0.2-0.7,0.5-1.4,1.2-1.3c1.4,0.2,2.8,0.7,2.7-1.5c0-0.7-0.2-1.5-1-1.4
		c-1.3,0.1-3.1,0.2-3.5,1.4c-1,2.8-3.4,2.8-6.1,3.6C-100.4,51.1-97.8,55.4-96.5,48.9z"/>
	<path fill="#DDB88C" d="M55.8,88.3c-4.7,1-9.8-1.2-14.4,1.3C46.2,89.5,51.3,91.3,55.8,88.3z"/>
	<path fill="#DDB88C" d="M89.1,4.4c-1.5,1.3-5.1,0.2-5.3,3.7c-0.1,1.3,1.2,2.2,2.4,1.8c2.2-0.7,4.3-1.9,4.9-4.4
		C91.3,4.5,90.4,4.2,89.1,4.4z"/>
	<path fill="#DDB88C" d="M-6.5,79.5c-0.8,0.9-1,1.8,0.3,2.9c3.5,2.7,6.3,1.3,9.4-1.2c-2-1.6-3.4-0.2-5-0.1c-1,0.1-2.5,0.9-3-0.7
		C-5.1,79.1-5,77.7-6.5,79.5z"/>
	<path fill="#DDB88C" d="M105.4-4.1c1.2,0.4,1.9-0.3,2-1.5c0.3-3.5,2.1-7-0.1-12.1c-1.6,4.5,0.5,8.7-3.1,11.2
		C103.6-6.1,104.5-4.5,105.4-4.1z"/>
	<path fill="#DDB88C" d="M36,79.5c1.3,0.6,2.3,0.5,2.4-1.2c0.1-1.5-0.8-1.9-2.2-2.1c-3.1-0.4-5.6,0.5-6.9,3.8
		C31.9,80.6,33.8,78.5,36,79.5z"/>
	<path fill="#DDB88C" d="M-40.7,28.2c-1.2-0.1-2.4-0.2-3.6-0.4c-3.7-0.7-5.2,1.3-2.7,3.7C-44.6,33.9-42.9,29.7-40.7,28.2z"/>
	<path fill="#DDB88C" d="M-2.4,8.5C-5.9,7.6-8.9,8.6-12.6,10C-8.2,12.6-5.1,11.9-2.4,8.5z"/>
	<path fill="#DDB88C" d="M90.9,53.5c-0.1,0.2-0.1,0.4-0.2,0.5c-0.5,1.8,0.9,2.6,2.2,2.7c1.8,0.1,3.1-1.3,3.2-3c0-0.2,0-0.3,0-0.5
		c-0.1-0.6-0.4-1.2-0.9-1.6c-0.4-0.3-0.9-0.5-1.5-0.5C91.9,51.2,91.3,52.3,90.9,53.5z"/>
	<path fill="#DDB88C" d="M20.5-48.1c1.3-0.7,3.4-0.7,3.5-2.7c0.1-1.7-1.4-1.9-2.8-2c-1.8-0.1-2.8,0.6-2.7,2.5
		C18.6-49,18.8-48,20.5-48.1z"/>
	<path fill="#DDB88C" d="M-5-9.2c0.1-1.5-0.9-2.6-2.6-2.6c-0.7,1.3-1.5,2.6-2.4,3.8c0.6,0.1,1.4,0,2.1,0.2C-7-8.2-5.1-7.2-5-9.2z"/>
	<path fill="#DDB88C" d="M98.1,83.8c1.8-1.2,5,0.6,5.8-2.9c-0.7-0.8-1.8-1.9-2.7-1.2c-1.7,1.3-4.5,1-5.2,3.3
		C95.6,84.1,97.3,84.3,98.1,83.8z"/>
	<path fill="#DDB88C" d="M37.3,89.5c-2.3,1.6-5.8-0.9-7.5,2.1c-0.4,0.8,0.7,1.3,2,0.9c1.9-1.5,5.5,1.3,7.1-2.1
		C39.4,89.6,38,89.1,37.3,89.5z"/>
	<path fill="#DDB88C" d="M-54,55.1c-3.5-2-6.8,0.7-10,0.4C-60.9,56.5-57.6,57.8-54,55.1z"/>
	<path fill="#DDB88C" d="M-64,55.5c-0.6-0.2-1.2-0.4-1.8-0.5C-65.2,55.3-64.6,55.5-64,55.5z"/>
	<path fill="#DDB88C" d="M30.5,71.3c-1,0.3-0.8,1.3-0.2,2c0.6,0.6,1.3,2,2.2,0.6c1.1-1.8,3.4-1.9,4.7-3.9
		C34.2,67.7,32.6,70.7,30.5,71.3z"/>
	<path fill="#DDB88C" d="M-66,61.2c1.1-0.4,3.1,0.7,3-1.4c-0.1-1.4-1.5-2.6-3.2-2.4c-1.4,0.1-2.7,1.1-2.7,2.4
		C-69.1,61.9-67.1,60.8-66,61.2z"/>
	<path fill="#DDB88C" d="M107.1,69.5c0-1.6-1.5-2.3-2.8-3.1c-1.3,0.6-1.9,1.6-1.1,2.8c0.7,1.1-0.5,3.5,1.9,3.3
		C106.4,72.5,107.1,70.8,107.1,69.5z"/>
	<path fill="#DDB88C" d="M89.1,26.5c-2.3,1.6-1.8,3.6-0.6,6.4c1.8-1.9,3.6-3.3,2.7-5.8C90.9,26.2,89.8,26,89.1,26.5z"/>
	<path fill="#DDB88C" d="M55.8-66.8c-1.3,0-2.4,0.5-2,2c0.3,1.3,1.2,2.5,2.7,2.5c1.4,0,1.9-1.2,1.9-2.4
		C58.5-66.5,57.3-66.9,55.8-66.8z"/>
	<path fill="#DDB88C" d="M-41.2,45.3c-0.1,2.1,1.6,1.6,2.8,1.8c1.1-0.1,2.7,0.2,2.6-1.5c-0.1-1.6-1.7-2-2.9-2.2
		C-40.1,43.2-41.1,44-41.2,45.3z"/>
	<path fill="#DDB88C" d="M11.2-50c1.5-0.1,3.2-1.2,3.4-2.3c0.4-1.5-1.7-1.5-2.8-2.2c-1.5,0.2-2.1,1.1-2.2,2.6
		C9.6-50.8,9.9-49.9,11.2-50z"/>
	<path fill="#DDB88C" d="M6.2,58.6c-3.9,0-6.9,0-9.8,0C-0.5,60.2,2.5,60.7,6.2,58.6z"/>
	<path fill="#DDB88C" d="M-65,71.8c3.4-0.5,5.8-0.8,8.7-1.2C-60,66.8-62,68.9-65,71.8z"/>
	<path fill="#DDB88C" d="M29.7-66.6c-0.3,1,0.5,1.7,1.4,1.3c1.4-0.7,3.9,0.3,4.3-2c0.1-1.2,0-2-1.2-1.7
		C32.5-68.6,30.5-68.6,29.7-66.6z"/>
	<path fill="#DDB88C" d="M-102,59.3c0,1.8,1.8,2.3,3.1,2.5c1.4,0.2,2-1.3,1.9-2.3c-0.1-1.6-1.7-1-2.8-1.2
		C-100.6,58.3-102,58-102,59.3z"/>
	<path fill="#DDB88C" d="M-35.2,73.2c-0.5,0.6-0.1,1.4,0.5,1.6c2.2,0.7,4.1,0.5,5.7-2.5C-31.3,72.4-33.5,71.2-35.2,73.2z"/>
	<path fill="#DDB88C" d="M83,60.8c0.8-1.3,1.9-2.5,0.9-4c-0.7-1-2.5-1-3.2-0.4C78.5,58.6,83.2,58.9,83,60.8z"/>
	<path fill="#DDB88C" d="M83,60.8c-0.2,0.3-0.4,0.7-0.5,1C82.8,61.4,82.9,61.1,83,60.8z"/>
	<path fill="#DDB88C" d="M-8.7,68.3c-3.3-2-5.3-0.5-8,1.2C-13.5,70.5-11.2,70.5-8.7,68.3z"/>
	<path fill="#DDB88C" d="M18.9-60c0.4-0.7,0.2-1.3-0.5-1.6c-2.7-0.8-3.4,2-6,3.1C15.7-57.4,17.6-58,18.9-60z"/>
	<path fill="#DDB88C" d="M87.5-73.8c0.5,2.5,2.7,3,4,1.9c1.7-1.3,1.4-3.6,0.1-5.5c-0.5,0.2-0.7,0.7-0.9,1.3
		c-0.1,0.3-0.1,0.6-0.1,0.9c0,0.2,0,0.3-0.1,0.4c0,0.3-0.1,0.6-0.2,0.8c-0.1,0.2-0.2,0.4-0.3,0.5c0,0,0,0,0,0.1
		C89.6-73.1,88.9-73.1,87.5-73.8z"/>
	<path fill="#DDB88C" d="M87.5-73.8L87.5-73.8L87.5-73.8C87.5-73.8,87.5-73.8,87.5-73.8L87.5-73.8C87.5-73.8,87.5-73.8,87.5-73.8
		L87.5-73.8z"/>
	<path fill="#DDB88C" d="M76.5-33.1c1.2-0.9,2.3-2.1,2.5-3.7c0.1-0.7-0.8-1-1.5-0.7c-1.6,0.7-2.9,1.6-2.7,3.6
		C74.9-33.2,75.5-33,76.5-33.1z"/>
	<path fill="#DDB88C" d="M98.3,1.6c0.4,1.1,1.2,1.6,2.3,1.4c2.4-0.4,2-2.5,2.8-4.8c-1.9,0.9-2.8,1.5-3.9,1.8
		C98.7,0.4,97.9,0.5,98.3,1.6z"/>
	<path fill="#DDB88C" d="M98.3-21.4c2.4,1.2,2.8-2.2,4.8-2.5c-1.6-0.3-3.2-2.5-4.5-0.1C98.1-23.3,97.2-22,98.3-21.4z"/>
	<path fill="#DDB88C" d="M108.5,90.3c-1.4,0.5-2.4,1.4-2.8,2.9c-0.2,0.9,0.1,1.7,1.1,1.8c1.8,0.1,2.2-1.7,2.9-2.8
		C110.4,91.2,109.4,90.8,108.5,90.3z"/>
	<path fill="#DDB88C" d="M70.3,58.9c1.1,1.1,1.9,0.4,1.9-0.7c0-0.9-0.8-2.4-1.3-2.4c-2.3-0.3-3,1.4-3.3,3.2
		C68.6,60.2,69.4,58.1,70.3,58.9z"/>
	<path fill="#DDB88C" d="M1.8,72.7c0.6-0.4,0.4-1.2-0.2-1.6c-2.3-1.8-4.2-0.4-6.2,0.9C-2.4,71.5-0.6,74.2,1.8,72.7z"/>
	<path fill="#DDB88C" d="M50.1-83.6c0.8-0.2,1.6-0.2,2.4-0.3c0-0.3-0.1-0.5-0.1-0.7c0-0.1-0.1-0.2-0.1-0.3c-0.1-0.2-0.2-0.4-0.4-0.5
		c-0.3-0.2-0.6-0.4-1-0.4c-1.2-0.2-2.5-1.5-3.3,0.4c-0.3,0.6-0.6,1.4-0.4,1.8C47.9-82.3,49-83.3,50.1-83.6z"/>
	<path fill="#DDB88C" d="M52.5-83.8L52.5-83.8L52.5-83.8C52.5-83.8,52.5-83.8,52.5-83.8L52.5-83.8C52.5-83.8,52.5-83.8,52.5-83.8z"
		/>
	<path fill="#DDB88C" d="M39.4-86.2c1.3,0,2-0.9,2.6-2.2c-0.3-0.9-1.1-1.4-2.1-1.4c-1.2,0-2.4,0.1-2.3,1.7
		C37.7-87,38.3-86.2,39.4-86.2z"/>
	<path fill="#DDB88C" d="M-113.9,59.4c0.2-0.9-0.4-1.7-1.3-1.9c-3.3-0.5-2,2.2-2.3,3.7l0,0C-116,61.1-114.3,61.3-113.9,59.4z"/>
	<path fill="#DDB88C" d="M109.5,76.7c-1.8,0.8-2.6,1.9-1.2,4.1c1.4-1.1,3.3-1.5,2.9-3.8C111,76.3,110.1,76.5,109.5,76.7z"/>
	<path fill="#DDB88C" d="M59.5,88.7c2.2,0.5,4.3,0.5,5.9-1.8C62.7,85.7,61.2,87.6,59.5,88.7z"/>
	<path fill="#DDB88C" d="M107.3,53.9c1.6,1.4,2.6,2.5,4.3,1.9c0.7-0.2,1-1,0.6-1.7C111.1,52.6,109.6,53.1,107.3,53.9z"/>
	<path fill="#DDB88C" d="M-44.9,65.5c-0.2,0.3,0,1.1,0.2,1.2c1.6,0.7,2.8-0.1,4-1.8C-42.6,63.9-43.9,64-44.9,65.5z"/>
	<path fill="#DDB88C" d="M-16.3,96.8c2.6,0,4.6,0,6.6,0C-11.7,97-13.6,93.9-16.3,96.8z"/>
	<path fill="#DDB88C" d="M-13.1,85.2c2.3,0.8,3.4-0.5,5.3-1.7C-10.4,82.9-11.7,83.5-13.1,85.2z"/>
	<path fill="#DDB88C" d="M87.5-73.8c-0.1-0.5-0.2-0.9-0.4-1.3c-0.2-0.3-0.5-0.6-0.8-0.8c-0.3-0.2-0.7-0.3-1.1-0.3
		c-0.4,0-0.9,0-1.5,0C84.7-74.3,86.1-74.1,87.5-73.8z"/>
	<path fill="#DDB88C" d="M87.5-73.8L87.5-73.8L87.5-73.8C87.5-73.8,87.5-73.8,87.5-73.8L87.5-73.8C87.5-73.8,87.5-73.8,87.5-73.8z"
		/>
	<path fill="#DDB88C" d="M105.7,84.4c0,0.7,0.1,1.4,0.9,1.3c0.5-0.1,1-0.6,1.4-0.8c0.1-1-0.2-1.6-1-1.6
		C106.4,83.3,105.8,83.6,105.7,84.4z"/>
	<path fill="#DDB88C" d="M-74.7,66.4c-0.4-0.1-1.1,0.1-1.2,0.4c-0.3,0.7,0.2,1.2,0.9,1.2c0.4,0,0.8-0.3,1.4-0.6
		C-74.1,66.9-74.4,66.5-74.7,66.4z"/>
	<path fill="#DDB88C" d="M-48.6,66.6c0.5,0.2,0.9-0.3,0.9-1.1c-0.2-0.2-0.5-0.6-0.7-0.9c-0.3,0.3-0.8,0.6-0.9,0.9
		C-49.3,65.9-48.9,66.5-48.6,66.6z"/>
	<path fill="#DDB88C" d="M-71.6,68.7c1.1,0.6,2.1,0.6,3.6-0.2C-69.7,68.2-70.7,67.8-71.6,68.7z"/>
	<path fill="#DDB88C" d="M18.3,89.7c-0.1,0-0.1,0.1-0.1,0.1c-0.1,0.2-0.2,0.5-0.3,0.7c0,0,0,0,0,0c0.2,0.1,0.5,0.3,0.7,0.3
		c0.1,0,0.1,0,0.2,0c0.2-0.1,0.3-0.5,0.4-0.8C18.8,89.8,18.5,89.6,18.3,89.7z"/>
	<path fill="#DDB88C" d="M15.9,73.4c0.3,0.1,0.6,0.4,0.8,0.3c0.2-0.1,0.3-0.5,0.4-0.8c-0.3-0.1-0.6-0.2-0.8-0.4c0,0,0,0,0,0
		C16.1,72.8,16,73.1,15.9,73.4z"/>
	<path fill="#DDB88C" d="M75.7-78.2c0.1-0.3,0.4-0.6,0.3-0.8c-0.1-0.2-0.5-0.3-0.8-0.4c-0.1,0.3-0.2,0.5-0.4,0.8c0,0,0,0,0,0
		C75.2-78.5,75.4-78.3,75.7-78.2z"/>
	<path fill="#DDB88C" d="M90.8,23.6c-0.1,0-0.1-0.1-0.2-0.1s-0.1,0-0.2,0c0,0-0.1,0.2-0.1,0.3c0.1,0,0.3,0.1,0.4,0.1c0,0,0,0,0,0
		C90.7,23.8,90.7,23.7,90.8,23.6z"/>
	<path fill="#DDB88C" d="M23.5,73.2L23.5,73.2c-0.1-0.1-0.3-0.2-0.4-0.2C23.2,73,23.4,73.1,23.5,73.2L23.5,73.2
		C23.5,73.2,23.5,73.2,23.5,73.2z"/>
	
		<line fill="none" stroke="#DDB88C" stroke-width="0" stroke-linecap="round" stroke-linejoin="round" x1="29.5" y1="-93.8" x2="29.5" y2="-93.8"/>
	<path fill="none" stroke="#DDB88C" stroke-width="0" stroke-linecap="round" stroke-linejoin="round" d="M29.5-93.8
		c0.3-0.3,0.7-0.7,1-1"/>
	<path fill="#DDB88C" d="M55.5-89.8L55.5-89.8c-0.1-0.1-0.3-0.2-0.4-0.2C55.2-90,55.4-89.9,55.5-89.8z"/>
	<path fill="#DDB88C" d="M-81.4,78.1l-0.1,0.1l0,0c0.2,0.1,0.3,0.2,0.5,0.4C-81.2,78.4-81.3,78.3-81.4,78.1z"/>
</g>
</svg>
